Coordinates
version=1
nRows=19
nColumns=34
inDegrees=yes

Units are S.I. units (second, meters, Newtons, ...)
If the header above contains a line with 'inDegrees', this indicates whether rotational values are in degrees (yes) or radians (no).

endheader
time	pelvis_tilt	pelvis_list	pelvis_rotation	pelvis_tx	pelvis_ty	pelvis_tz	hip_flexion_r	hip_adduction_r	hip_rotation_r	knee_angle_r	ankle_angle_r	subtalar_angle_r	mtp_angle_r	hip_flexion_l	hip_adduction_l	hip_rotation_l	knee_angle_l	ankle_angle_l	subtalar_angle_l	mtp_angle_l	lumbar_extension	lumbar_bending	lumbar_rotation	arm_flex_r	arm_add_r	arm_rot_r	elbow_flex_r	pro_sup_r	arm_flex_l	arm_add_l	arm_rot_l	elbow_flex_l	pro_sup_l
      1.44000000	     -1.02881546	      6.50939480	     -0.65491173	     -0.52942772	      0.91209211	     -0.26558546	     10.03772167	     -3.68545818	      0.45950415	    -63.08349050	    -11.27683766	    -12.28339184	     27.54293412	     17.01241038	     10.44307233	     -2.23276406	    -20.42706706	      2.71279638	     -1.00676953	      8.39876879	     -4.12201732	     -5.90285741	      0.32062344	     -3.76236024	    -18.00350055	      6.01001267	     26.19284392	     90.00000000	     -3.70799178	    -15.09466755	     20.83483701	     15.22035557	     90.00000000
      1.45000000	     -1.13028599	      6.37589667	     -0.99712843	     -0.51811982	      0.91387404	     -0.26489727	     12.12141654	     -3.38577145	      1.10656528	    -63.99302201	    -10.42429681	    -12.43718522	     27.62728809	     15.95938889	     10.19319911	     -2.57430452	    -19.77517827	      3.35787784	     -0.53070991	      8.43591482	     -4.18177905	     -5.64421478	      0.30364343	     -4.03503886	    -17.96781643	      6.04067189	     25.58496845	     90.00000000	     -3.13726312	    -15.21096983	     20.70073023	     16.03210188	     90.00000000
      1.46000000	     -1.59932634	      6.31620988	     -1.58764166	     -0.50688668	      0.91491092	     -0.26356092	     14.65610656	     -3.06946491	      1.95336485	    -64.73427747	     -9.35858193	    -11.71727869	     27.58756572	     15.51524309	      9.84005243	     -3.64752674	    -19.50029767	      4.25853963	      0.66281031	      8.35083450	     -3.68809318	     -5.56584821	      0.54636703	     -3.87312515	    -17.74764646	      6.47098322	     23.50976947	     90.00000000	     -2.70270770	    -15.44694253	     20.60295154	     17.08219278	     90.00000000
      1.47000000	     -1.58331909	      5.95263934	     -1.65179481	     -0.49514397	      0.91692479	     -0.26301871	     16.25081465	     -2.59082845	      2.17191950	    -64.72485165	     -8.17181273	    -10.65623776	     27.30909042	     14.31172569	      9.43827214	     -3.53915095	    -18.92950944	      4.95198629	      1.45856046	      7.94211344	     -3.80510639	     -5.09109925	      0.08630463	     -3.75744067	    -17.68353290	      7.45876947	     22.03192132	     90.00000000	     -2.35811783	    -15.64432720	     20.58519195	     18.20758869	     90.00000000
      1.48000000	     -1.56731461	      5.77226448	     -1.76933512	     -0.48361850	      0.91873625	     -0.26252097	     17.88637741	     -2.37641631	      2.34548736	    -64.61558677	     -6.62148665	     -9.27963797	     24.72304686	     13.08553366	      9.26546273	     -3.26737730	    -18.25418341	      5.60443440	      1.67651138	      5.84648135	     -3.92454591	     -4.83142605	     -0.27466378	     -3.76989288	    -17.77608553	      9.34040571	     20.95533722	     90.00000000	     -1.96256030	    -15.81927580	     19.90837082	     19.39437333	     90.00000000
      1.49000000	     -1.63188331	      5.47060474	     -1.84026493	     -0.47200617	      0.92040477	     -0.26212171	     19.41245598	     -2.02689230	      2.43906869	    -63.94406947	     -5.90522507	     -9.13875155	     24.77411818	     11.89846903	      8.98446749	     -2.91696865	    -17.47435428	      5.94747724	      1.80120546	      5.83695195	     -3.95529255	     -4.39241468	     -0.48974901	     -4.33257344	    -17.81307003	      9.18039080	     20.88904621	     90.00000000	     -1.40094606	    -15.94784982	     19.79665447	     20.28874131	     90.00000000
      1.50000000	     -1.68533297	      5.18865599	     -1.76362056	     -0.46049552	      0.92183113	     -0.26182649	     20.83551600	     -1.81514379	      2.33695653	    -63.07272534	     -4.48647012	     -7.42306081	     24.16713242	     10.78708538	      8.75754542	     -2.43618125	    -16.85172058	      6.40099057	      1.75216928	      5.48504958	     -4.00513254	     -3.98361677	     -0.87430557	     -4.45108324	    -17.61132379	      8.71888805	     19.61818528	     90.00000000	     -0.91751163	    -16.20565557	     19.91862155	     21.62715326	     90.00000000
      1.51000000	     -1.75814989	      4.86642389	     -1.65012982	     -0.44873961	      0.92308560	     -0.26156011	     22.07036746	     -1.59071119	      2.10346250	    -61.76021971	     -3.30072212	     -6.72357627	     22.82109604	      9.66031871	      8.49592156	     -1.90373193	    -16.17630371	      6.80165279	      1.53469223	      5.06933721	     -3.98294853	     -3.54622116	     -1.25258027	     -4.83065377	    -17.59332243	      8.80653037	     19.03034919	     90.00000000	     -0.46865677	    -16.45397844	     19.79727540	     22.84266754	     90.00000000
      1.52000000	     -1.86056768	      4.53758421	     -1.51385812	     -0.43712539	      0.92402406	     -0.26135515	     23.23912368	     -1.38859154	      1.85732228	    -60.09946975	     -2.49057199	     -6.40803500	     22.80922311	      8.64784040	      8.21791739	     -1.53459489	    -15.62729583	      7.22854051	      1.50105367	      5.05674098	     -3.93535181	     -3.08413915	     -1.67115076	     -5.25412544	    -17.60235450	      8.64435874	     18.65863207	     90.00000000	      0.03129456	    -16.68570351	     19.83252973	     23.96252546	     90.00000000
      1.53000000	     -2.02971124	      4.38995620	     -1.41842596	     -0.42536914	      0.92464332	     -0.26093845	     24.36864206	     -1.35775513	      1.64720407	    -58.15935235	     -2.11526332	     -6.42777009	     22.77539286	      7.67915752	      8.08796560	     -1.45207627	    -14.99678053	      7.51436583	      1.56853846	      5.07968403	     -3.76710200	     -2.85923402	     -2.01328339	     -5.87765802	    -17.59072765	      8.55099348	     18.73108932	     90.00000000	      0.56409809	    -16.89072694	     19.67675813	     24.78603907	     90.00000000
      1.54000000	     -1.90193574	      4.02925971	     -1.04600255	     -0.41362889	      0.92552366	     -0.26086594	     24.91749626	     -1.26968407	      1.05082697	    -55.74178295	     -1.46109583	     -6.67418294	     22.47326419	      6.35058730	      7.76071204	     -0.88797447	    -14.37324063	      8.00650600	      1.75398233	      5.06865637	     -3.97543393	     -2.39172938	     -2.70954072	     -5.97617655	    -17.44368201	      8.11285867	     17.61540575	     90.00000000	      0.96288107	    -17.27427398	     19.77097702	     26.37155389	     90.00000000
      1.55000000	     -1.88379734	      3.80075430	     -0.92892721	     -0.40186913	      0.92595390	     -0.26053991	     25.53499470	     -1.17371589	      0.79944178	    -53.09979734	     -1.42686560	     -7.43890485	     21.78086803	      5.09443337	      7.52367889	     -0.71973867	    -13.63009823	      8.32891928	      1.94907974	      4.99849384	     -4.02433087	     -2.08552696	     -3.08281973	     -6.29599779	    -17.38296001	      7.93868405	     17.04714532	     90.00000000	      1.43200366	    -17.56549796	     19.65301811	     27.60843356	     90.00000000
      1.56000000	     -1.69988122	      3.50006696	     -0.71756377	     -0.38985239	      0.92634831	     -0.26018865	     25.75465369	     -1.07944101	      0.34932583	    -50.08086846	     -1.16832469	     -8.18453743	     21.20805553	      3.62931052	      7.19074899	     -0.51749776	    -12.87495239	      8.80591589	      2.20586543	      4.92331906	     -4.24427424	     -1.70628394	     -3.57270038	     -6.61596780	    -17.31831542	      7.70452627	     16.49139848	     90.00000000	      1.90782963	    -17.85325733	     19.51722019	     28.76351979	     90.00000000
      1.57000000	     -1.60625998	      3.33176081	     -0.52692878	     -0.37795402	      0.92636467	     -0.25976929	     26.00980438	     -1.08340936	      0.00816178	    -46.83683186	     -1.14830517	     -9.03438923	     20.69737412	      2.23937138	      6.97766429	     -0.28306187	    -12.06311538	      9.17194502	      2.54975863	      4.84899979	     -4.38715556	     -1.48019606	     -3.96790192	     -6.99538342	    -17.22151522	      7.48061619	     16.18794467	     90.00000000	      2.42104238	    -18.11049343	     19.41164926	     29.89990055	     90.00000000
      1.58000000	     -1.71762298	      3.26620212	     -0.36173398	     -0.36599108	      0.92575397	     -0.25939970	     26.39002361	     -1.19389560	     -0.27218843	    -43.42235931	     -1.00806048	     -9.53245822	     20.42351187	      1.05219519	      6.87513353	     -0.06338006	    -11.20787953	      9.63789770	      2.81066676	      4.84822146	     -4.25929070	     -1.36784030	     -4.28285543	     -7.50801868	    -17.15752209	      7.27104457	     16.04037240	     90.00000000	      2.96585141	    -18.35792929	     19.28864248	     30.83196556	     90.00000000
      1.59000000	     -1.23645122	      3.06120038	     -0.20833871	     -0.35373105	      0.92594560	     -0.25883313	     25.84708691	     -1.14563325	     -0.61277416	    -39.48863803	     -1.29321721	    -10.50711026	     19.73587806	     -0.76737319	      6.59025330	      0.00928101	    -10.39784513	     10.13744333	      3.15205647	      4.72842026	     -4.83720061	     -1.11595035	     -4.72389701	     -7.65508697	    -17.01490176	      6.83867417	     15.36655128	     90.00000000	      3.39196501	    -18.73145053	     19.32889072	     32.10501092	     90.00000000
      1.60000000	     -1.01433387	      2.96489805	     -0.03061291	     -0.34152384	      0.92547327	     -0.25826502	     25.54526634	     -1.19382010	     -0.97330991	    -35.48184246	     -1.33708957	    -10.95666135	     19.27407303	     -2.29141802	      6.40996431	      0.18777774	     -9.59879041	     10.56241697	      3.52167945	      4.63502752	     -5.10183972	     -0.97985381	     -5.09463385	     -7.92069481	    -16.83933026	      6.34433059	     14.87799616	     90.00000000	      3.88419984	    -19.00519887	     19.24485275	     33.11419155	     90.00000000
      1.61000000	     -0.91962075	      2.93350906	      0.14034369	     -0.32921092	      0.92456013	     -0.25778550	     25.30292860	     -1.33738437	     -1.34268524	    -31.37331400	     -1.28754768	    -10.85469760	     18.85765079	     -3.67932230	      6.30123129	      0.42003977	     -8.81996411	     10.94771072	      3.75516146	      4.56651803	     -5.19633132	     -0.90981136	     -5.43094638	     -8.32041097	    -16.75939139	      6.05231801	     14.70168481	     90.00000000	      4.33125908	    -19.25214200	     19.09851906	     34.08730109	     90.00000000
      1.62000000	     -0.86072766	      2.91553198	      0.31596750	     -0.31687566	      0.92334410	     -0.25705399	     25.05605955	     -1.47457548	     -1.70044521	    -27.21754664	     -1.22681405	    -10.15639178	     18.54864764	     -4.97730898	      6.18421180	      0.67473113	     -8.12313764	     11.26667213	      3.98159118	      4.50936930	     -5.25944635	     -0.89314280	     -5.76969497	     -8.64054046	    -16.61278258	      5.73327213	     14.41839045	     90.00000000	      4.73417378	    -19.52001164	     18.94841412	     35.03838266	     90.00000000
